<?xml version="1.0" encoding="UTF-8"?>
<svg xmlns="http://www.w3.org/2000/svg" viewBox="0 0 200 25.04">
  <defs>
    <style>.d{fill:#0098bc;}.e{fill:#78c8db;}</style>
  </defs>
  <g id="a"></g>
  <g id="b">
    <g id="c">
      <g>
        <path class="d" d="M20.95,11.66c-.1,2.02-.33,6.71-5.56,10.15-3.9,2.58-9.59,3.19-9.82,3.22-.15,0-.31-.05-.38-.18l-2.81-4.75c-.05-.1-.08-.23-.02-.33,.02-.1,.1-.18,.2-.23,.05-.02,4.11-1.71,6.02-3.29,1.79-1.48,2.22-2.17,2.65-2.98,.46-.84,.66-1.79,.66-2.09,0-.13-.02-.49-1.3-.54-.51,0-.74,0-1.22,.08-.23,.59-1.05,2.3-2.35,3.62-1.68,1.73-3.9,2.75-4.01,2.81-.15,.08-.36,.03-.46-.13L.08,13.57c-.13-.15-.1-.36,.02-.49,0,0,1.45-1.56,2.53-3.57,1.05-1.99,1.56-4.16,1.56-4.18,.03-.15,.15-.26,.31-.28,.03-.03,3.04-.61,7.07-.61,3.62,0,5.61,.33,7.27,1.17,1.71,.89,2.3,2.53,2.12,6.05Z"></path>
        <path class="d" d="M32.68,16.56l-5.94,.31c-.18,0-.36-.13-.38-.33,0-.03-.36-2.48-.41-5.59-.05-3.19,.28-6.45,.28-6.51,.03-.2,.2-.33,.38-.33l6.12,.18c.1,0,.2,.05,.25,.13,.08,.08,.1,.15,.1,.25,0,.05-.1,3.78-.1,5.87l.05,5.64c0,.2-.15,.38-.36,.38Zm13.24-2.93c-.2,5.59-3.57,9.97-8.39,10.94-4.31,.87-7.45,.2-7.6,.15-.13-.02-.23-.13-.28-.26l-1.45-5.41c-.03-.1,0-.21,.05-.31,.08-.1,.18-.15,.28-.15,.02-.02,3.37-.38,5-1.4,1.89-1.2,2.65-2.93,2.73-6.25,.08-3.27-.08-6.28-.1-6.33,0-.1,.05-.18,.1-.25,.08-.08,.18-.13,.28-.13l8.09-.38c.18,0,.36,.13,.38,.28,.05,.18,1.1,4.16,.92,9.49Z"></path>
        <path class="d" d="M72,10.56v6.23c0,.2-.18,.38-.38,.38-.05,0-4.49,.18-10.08,.18s-10.05-.18-10.1-.18c-.2,0-.36-.18-.36-.38v-6.23c0-.2,.15-.38,.36-.38,.05,0,4.49-.18,10.1-.18s10.03,.18,10.08,.18c.2,0,.38,.18,.38,.38Z"></path>
        <path class="d" d="M81.45,11.68c-1.76-.87-4.39-1.89-4.44-1.91-.08-.03-.15-.1-.2-.2-.05-.1-.05-.2,0-.31l2.12-4.97c.08-.18,.25-.28,.43-.23,.1,0,2.45,.46,4.95,1.61,2.78,1.28,4.36,2.73,4.44,2.78,.13,.13,.18,.33,.08,.48l-2.88,4.82c-.05,.1-.15,.15-.26,.18-.1,.03-.2,.03-.28-.05-.03,0-2.17-1.3-3.96-2.19Zm13.16,8.7c-4.95,5.87-15.15,4.54-15.59,4.49-.15-.02-.28-.13-.31-.28l-1.4-5.43c-.02-.1,0-.21,.05-.31,.08-.08,.18-.15,.28-.15,.05,0,5.31-.51,9.06-3.85,3.06-2.7,3.96-9.29,3.96-9.34,0-.13,.08-.2,.15-.28,.1-.05,.2-.08,.31-.05l5.87,1.28c.15,.02,.28,.15,.28,.33,.05,.38,.79,9.49-2.65,13.6Z"></path>
      </g>
      <g>
        <path class="d" d="M147.95,11.25c-.23,4.31-2.22,7.63-6.07,10.15-3.9,2.58-10.28,3.19-10.54,3.21-.15,0-.31-.07-.38-.2l-2.55-4.97c-.05-.1-.05-.2-.02-.31,.05-.08,.1-.18,.2-.2,.02-.03,2.47-1.25,4.74-3.09,1.3-1.05,2.42-2.32,3.04-3.39,.41-.77,.41-1.15,.38-1.3-.1-.33-.36-.51-.92-.64-1.02-.23-3.09-.25-3.93-.25-1.17,0-2.65,.05-3.88,.13-.2,.02-.38-.13-.38-.36l-.41-4.59c-.02-.2,.1-.38,.31-.43,.05,0,4.62-.69,8.65-.71,3.67-.02,6.4,.1,8.67,.84,2.22,.71,3.24,2.75,3.09,6.12Zm2.14-8.62c0,1.43-1.17,2.6-2.6,2.6s-2.63-1.17-2.63-2.6,1.17-2.63,2.63-2.63,2.6,1.17,2.6,2.63Zm-1.94-.31c0-.54-.43-.94-.95-.94s-.97,.41-.97,.94,.43,.94,.97,.94,.95-.41,.95-.94Z"></path>
        <path class="d" d="M173.45,14.49c-.2,3.16-2.19,5.66-6.07,7.63-3.9,1.97-10.28,2.45-10.54,2.47-.15,0-.33-.1-.38-.26l-1.58-3.8c-.03-.1-.03-.2,0-.31,.05-.1,.13-.18,.23-.2,.02,0,1.89-.71,4.16-2.12,1.53-.94,2.45-1.71,2.96-2.4,.31-.41,.36-.84,.25-1.02-.15-.31-.64-.41-1.12-.51-1.02-.18-3.09-.18-3.93-.18-1.1,0-2.32,.03-3.65,.1-.2,0-.38-.15-.38-.38l-.2-3.6c0-.2,.13-.36,.33-.38,.05-.03,4.16-.51,8.16-.51,3.57-.03,6.4,.1,8.67,.69,2.35,.64,3.27,2.04,3.09,4.77Zm-19.21-6.5l-.2-3.06c0-.1,.03-.2,.1-.28,.05-.08,.15-.13,.26-.13,.05,0,4.03-.23,9.03-.23s8.98,.23,9.03,.23c.1,0,.21,.05,.26,.13,.08,.08,.1,.18,.1,.28l-.23,3.06c0,.2-.18,.36-.38,.36-.05,0-4.39-.18-8.77-.18s-8.72,.18-8.78,.18c-.2,0-.38-.15-.41-.36Z"></path>
        <path class="d" d="M199.95,19.47l-2.53,4.95c-.08,.15-.26,.26-.43,.2-.18-.02-4.18-.87-7.73-3.01-3.44,1.99-7.45,2.96-7.65,3.01-.15,.05-.33-.02-.43-.2l-2.53-4.95c-.05-.1-.08-.21-.02-.31,.02-.1,.1-.18,.18-.23,.02,0,2.47-1.23,4.77-3.09,1.38-1.12,2.55-2.32,3.27-3.37,.36-.51,.71-1.1,.64-1.48-.05-.26-.31-.38-.92-.49-.89-.15-2.93-.18-3.55-.18h-.48c-.95,0-1.91,0-3.06,.08-.2,0-.38-.15-.41-.36l-.41-4.62c0-.18,.13-.36,.33-.41,.02,0,4.13-.71,8.16-.74,3.6,0,5.76,.23,7.75,.87,2.5,.77,3.52,2.35,3.42,5.26-.05,1.73-.99,3.7-2.81,5.82,2.14,1.63,4.26,2.71,4.29,2.71,.08,.05,.15,.13,.18,.23,.05,.1,.03,.21-.02,.31Z"></path>
      </g>
      <path class="e" d="M110.03,7.79c-.02-.5,.17-.93,.56-1.32,.35-.34,.8-.54,1.3-.54s.95,.19,1.32,.56c.37,.39,.5,.82,.47,1.34v4.83h4.77c.52-.02,.95,.15,1.32,.52,.35,.35,.54,.8,.52,1.27,.02,.52-.17,.95-.52,1.32-.37,.37-.8,.54-1.3,.54h-4.79v4.77c.02,.5-.13,.95-.5,1.32-.37,.37-.8,.56-1.32,.54-.5,.02-.95-.17-1.3-.54-.37-.37-.56-.82-.54-1.32v-4.77h-4.75c-.5,.02-.93-.15-1.34-.5-.39-.37-.58-.78-.56-1.3-.02-.5,.17-.95,.56-1.32,.39-.37,.82-.56,1.32-.54h4.77V7.79Z"></path>
    </g>
  </g>
</svg>
